
<svg xmlns="http://www.w3.org/2000/svg"  viewBox="0 0 24 24" width="50px" height="50px" ><path d="M 11 1 L 11 2 L 11 3.203125 C 7.0846057 3.7180136 4 6.9478647 4 11 L 4 14 C 4 15.657407 2.3417969 17.248047 2.3417969 17.248047 L 2 17.546875 L 2 20 L 9 20 C 9 21.64497 10.35503 23 12 23 C 13.64497 23 15 21.64497 15 20 L 22 20 L 22 17.460938 L 21.550781 17.164062 C 21.550781 17.164062 20 16.184859 20 14 L 20 11 C 20 6.9478647 16.915394 3.7180136 13 3.203125 L 13 2 L 13 1 L 11 1 z M 12 5 C 15.325562 5 18 7.674438 18 11 L 18 14 C 18 16.096206 18.889645 17.266322 19.615234 18 L 4.3300781 18 C 5.0132368 17.275994 6 16.027371 6 14 L 6 11 C 6 7.674438 8.674438 5 12 5 z M 11 20 L 13 20 C 13 20.56503 12.56503 21 12 21 C 11.43497 21 11 20.56503 11 20 z"/></svg>